<?xml version="1.0" standalone="no"?><!DOCTYPE svg PUBLIC "-//W3C//DTD SVG 1.1//EN" "http://www.w3.org/Graphics/SVG/1.1/DTD/svg11.dtd"><svg t="1536309358516" class="icon" style="" viewBox="0 0 1024 1024" version="1.1" xmlns="http://www.w3.org/2000/svg" p-id="20073" xmlns:xlink="http://www.w3.org/1999/xlink" width="200" height="200"><defs><style type="text/css"></style></defs><path d="M607.4 256l-442 0C127.8 256 94 284.2 94 321.4l0 375.8c0 37.2 33.8 70.8 71.4 70.8l442 0c37.6 0 66.6-33.6 66.6-70.8L674 321.4C674 284.2 645 256 607.4 256zM640 697.2c0 18.6-13.8 36.8-32.6 36.8l-442 0c-18.8 0-37.4-18.2-37.4-36.8L128 321.4c0-18.6 18-31 36.8-31l442 0.2c18.8 0 33.2 12.2 33.2 30.8L640 697.2z" p-id="20074" fill="#ffffff"></path><path d="M734 426l0 171.2 196 106.8L930 320 734 426zM896 380l0 264.6-128-67 0-131.2 128.2-67.2L896 380z" p-id="20075" fill="#ffffff"></path></svg>