<?xml version="1.0" standalone="no"?><!DOCTYPE svg PUBLIC "-//W3C//DTD SVG 1.1//EN" "http://www.w3.org/Graphics/SVG/1.1/DTD/svg11.dtd"><svg t="1536543121594" class="icon" style="" viewBox="0 0 1024 1024" version="1.1" xmlns="http://www.w3.org/2000/svg" p-id="6512" xmlns:xlink="http://www.w3.org/1999/xlink" width="200" height="200"><defs><style type="text/css"></style></defs><path d="M512 64c-87.4 0-158 75-158 167v309c0 92 70.6 167 158 167s158-75 158-167V231c0-92-70.6-167-158-167z m126 476c0 74.4-56.6 135-126 135s-126-60.6-126-135V231c0-74.4 56.6-135 126-135s126 60.6 126 135v309z" p-id="6513" fill="#ffffff"></path><path d="M734 384v159.4c0 120.4-99.6 218.4-220 218.4s-220-98-220-218.4V384h-38v159.4c0 134.4 106 245.2 240 255V924H350v36h322v-36H534V798.4c132-9.8 234-120.6 234-255V384h-34z" p-id="6514" fill="#ffffff"></path></svg>